<?xml version="1.0" encoding="utf-8"?>
<!-- Generator: Adobe Illustrator 23.0.3, SVG Export Plug-In . SVG Version: 6.00 Build 0)  -->
<svg version="1.1" id="Calque_1" xmlns="http://www.w3.org/2000/svg" xmlns:xlink="http://www.w3.org/1999/xlink" x="0px" y="0px"
	 viewBox="0 0 2834.65 1417.32" style="enable-background:new 0 0 2834.65 1417.32;" xml:space="preserve">
<style type="text/css">
	.st0{fill:#F9DE4E;}
	.st1{fill:#80807E;}
	.st2{fill:#7E7E7D;}
	.st3{fill:#7E7E7C;}
	.st4{fill:#FCFCFC;}
	.st5{fill:#FDFDFD;}
</style>
<g>
	<path class="st0" d="M1321,704.32c0,33.33,0,66.67,0,100c0,1.33,0,2.67,0,4c0,3.67,0,7.33,0,11c-0.63,3.1-1.53,6.18-1.86,9.31
		c-4.13,38.75-29.61,66.14-67.91,72.85c-5.73,1-11.49,1.89-17.23,2.83c-3,0-6,0-9,0c-1.33,0-2.67,0-4,0c-33.33,0-66.67,0-100,0
		c-1.33,0-2.67,0-4,0c-3.67,0-7.33,0-11,0c-3.27-0.65-6.51-1.55-9.81-1.92c-38.44-4.25-65.65-29.73-72.37-67.87
		c-0.9-5.08-1.88-10.14-2.82-15.21c0-3.67,0-7.33,0-11c0-1.33,0-2.67,0-4c0-33.33,0-66.67,0-100c0-1.33,0-2.67,0-4
		c0-3.67,0-7.33,0-11c0.62-2.94,1.49-5.85,1.82-8.82c4.34-39.6,29.26-66.36,68.46-73.42c5.24-0.94,10.48-1.84,15.73-2.76
		c3.33,0,6.67,0,10,0c1.33,0,2.67,0,4,0c33.33,0,66.67,0,100,0c1.33,0,2.67,0,4,0c3,0,6,0,9,0c3.61,0.62,7.2,1.43,10.84,1.83
		c41.64,4.54,69.85,32.76,74.34,74.34c0.36,3.3,1.2,6.55,1.82,9.83c0,3.33,0,6.67,0,10C1321,701.66,1321,702.99,1321,704.32z
		 M1047.51,754.31c0.19,0.01,0.38,0.01,0.57,0.02c0,1.33-0.03,2.67,0,4c0.63,22.63,0.32,45.34,2.17,67.87
		c1.81,22.12,13.13,38.74,35.09,45.79c8.28,2.66,17.27,4,25.98,4.22c29.47,0.76,58.95,1,88.43,0.94c14.3-0.03,28.67-0.48,42.89-1.92
		c26.93-2.74,44.26-18.48,48.46-45.13c2.32-14.71,2.57-29.85,2.64-44.8c0.14-31.14,0.07-62.3-0.91-93.42
		c-1.12-35.86-18.64-56.82-53.68-58.51c-45.34-2.19-90.94-2.11-136.28-0.01c-33.73,1.56-49.99,19.27-53.1,53.07
		C1047.68,708.94,1048.17,731.68,1047.51,754.31z"/>
	<path class="st1" d="M1121,604.32c-1.33,0-2.67,0-4,0C1118.33,604.32,1119.67,604.32,1121,604.32z"/>
	<path class="st1" d="M1225,604.32c-1.33,0-2.67,0-4,0C1222.33,604.32,1223.67,604.32,1225,604.32z"/>
	<path class="st1" d="M1021,700.32c0,1.33,0,2.67,0,4C1021,702.99,1021,701.66,1021,700.32z"/>
	<path class="st2" d="M1321,704.32c0-1.33,0-2.67,0-4C1321,701.66,1321,702.99,1321,704.32z"/>
	<path class="st1" d="M1021,804.32c0,1.33,0,2.67,0,4C1021,806.99,1021,805.66,1021,804.32z"/>
	<path class="st3" d="M1321,808.32c0-1.33,0-2.67,0-4C1321,805.66,1321,806.99,1321,808.32z"/>
	<path class="st2" d="M1117,904.32c1.33,0,2.67,0,4,0C1119.67,904.32,1118.33,904.32,1117,904.32z"/>
	<path class="st2" d="M1221,904.32c1.33,0,2.67,0,4,0C1223.67,904.32,1222.33,904.32,1221,904.32z"/>
	<path class="st4" d="M1047.51,754.31c0.66-22.63,0.17-45.37,2.24-67.88c3.11-33.8,19.37-51.51,53.1-53.07
		c45.35-2.1,90.94-2.17,136.28,0.01c35.04,1.69,52.56,22.65,53.68,58.51c0.97,31.12,1.04,62.28,0.91,93.42
		c-0.07,14.95-0.32,30.08-2.64,44.8c-4.2,26.65-21.53,42.39-48.46,45.13c-14.22,1.44-28.58,1.89-42.89,1.92
		c-29.48,0.06-58.96-0.18-88.43-0.94c-8.71-0.23-17.7-1.56-25.98-4.22c-21.95-7.05-33.27-23.68-35.09-45.79
		c-1.85-22.53-1.54-45.24-2.17-67.87c-0.04-1.33,0-2.67,0-4C1047.89,754.32,1047.7,754.32,1047.51,754.31z M1170.78,831.37
		c42.65,0.03,77.17-34.13,77.26-76.46c0.09-42.99-34.01-77.57-76.58-77.63c-42.95-0.07-77.46,34.08-77.51,76.71
		C1093.91,796.89,1128.1,831.33,1170.78,831.37z M1251.18,656.22c-10.07-0.04-18.13,7.9-18.19,17.92
		c-0.06,9.98,7.99,18.13,17.97,18.2c10,0.07,18.1-7.95,18.15-17.97C1269.14,664.27,1261.24,656.26,1251.18,656.22z"/>
	<path class="st0" d="M1170.78,831.37c-42.68-0.03-76.88-34.48-76.83-77.38c0.05-42.63,34.55-76.77,77.51-76.71
		c42.57,0.07,76.67,34.64,76.58,77.63C1247.95,797.24,1213.43,831.4,1170.78,831.37z M1171.1,804.28
		c27.41-0.05,49.85-22.52,49.86-49.93c0.02-27.41-22.4-49.91-49.8-49.99c-27.62-0.08-50.23,22.56-50.11,50.18
		C1121.15,781.95,1143.68,804.33,1171.1,804.28z"/>
	<path class="st0" d="M1251.18,656.22c10.06,0.04,17.96,8.04,17.92,18.14c-0.04,10.02-8.14,18.04-18.15,17.97
		c-9.98-0.07-18.03-8.22-17.97-18.2C1233.05,664.12,1241.11,656.18,1251.18,656.22z"/>
	<path class="st5" d="M1171.1,804.28c-27.42,0.05-49.94-22.33-50.05-49.74c-0.11-27.62,22.5-50.25,50.11-50.18
		c27.4,0.08,49.82,22.57,49.8,49.99C1220.94,781.76,1198.5,804.23,1171.1,804.28z"/>
</g>
</svg>
